<svg width="20" height="16" viewBox="0 0 20 16" fill="none" xmlns="http://www.w3.org/2000/svg">
<path d="M0.301966 7.44246C2.34803 6.35383 4.63198 5.4452 6.76599 4.53196C10.4373 3.03613 14.1232 1.56623 17.8463 0.197773C18.5707 -0.0353846 19.8723 -0.263372 19.9999 0.773533C19.93 2.24132 19.6425 3.70051 19.4453 5.15971C18.9449 8.36861 18.3664 11.5665 17.8023 14.7649C17.6079 15.8302 16.2263 16.3817 15.3423 15.6999C13.2177 14.3138 11.0769 12.941 8.97948 11.5227C8.29243 10.8483 8.92954 9.87992 9.54314 9.39835C11.293 7.73262 13.1487 6.31738 14.8071 4.56556C15.2544 3.52212 13.9326 4.40149 13.4967 4.67097C11.1011 6.26555 8.76424 7.9575 6.23861 9.35893C4.94851 10.0449 3.44489 9.45869 2.15538 9.07592C0.999199 8.61351 -0.694956 8.14749 0.301966 7.44246Z" fill="#3454D2"/>
</svg>
